<?xml version="1.0" encoding="utf-8" standalone="no"?>
<!DOCTYPE svg PUBLIC "-//W3C//DTD SVG 1.1//EN"
  "http://www.w3.org/Graphics/SVG/1.1/DTD/svg11.dtd">
<svg xmlns:xlink="http://www.w3.org/1999/xlink" width="396.885625pt" height="296.46825pt" viewBox="0 0 396.885625 296.46825" xmlns="http://www.w3.org/2000/svg" version="1.1">
 <metadata>
  <rdf:RDF xmlns:dc="http://purl.org/dc/elements/1.1/" xmlns:cc="http://creativecommons.org/ns#" xmlns:rdf="http://www.w3.org/1999/02/22-rdf-syntax-ns#">
   <cc:Work>
    <dc:type rdf:resource="http://purl.org/dc/dcmitype/StillImage"/>
    <dc:date>2023-04-05T14:52:03.942029</dc:date>
    <dc:format>image/svg+xml</dc:format>
    <dc:creator>
     <cc:Agent>
      <dc:title>Matplotlib v3.6.1, https://matplotlib.org/</dc:title>
     </cc:Agent>
    </dc:creator>
   </cc:Work>
  </rdf:RDF>
 </metadata>
 <defs>
  <style type="text/css">*{stroke-linejoin: round; stroke-linecap: butt}</style>
 </defs>
 <g id="figure_1">
  <g id="patch_1">
   <path d="M 0 296.46825 
L 396.885625 296.46825 
L 396.885625 0 
L 0 0 
L 0 296.46825 
z
" style="fill: none"/>
  </g>
  <g id="axes_1">
   <g id="patch_2">
    <path d="M 39.765625 266.112 
L 396.885625 266.112 
L 396.885625 -0 
L 39.765625 -0 
L 39.765625 266.112 
z
" style="fill: none"/>
   </g>
   <g id="patch_3">
    <path d="M 55.998352 266.112 
L 60.107903 266.112 
L 60.107903 102.602323 
L 55.998352 102.602323 
z
" clip-path="url(#p66d63cb814)" style="fill: #d62728"/>
   </g>
   <g id="patch_4">
    <path d="M 76.546108 266.112 
L 80.65566 266.112 
L 80.65566 213.99329 
L 76.546108 213.99329 
z
" clip-path="url(#p66d63cb814)" style="fill: #d62728"/>
   </g>
   <g id="patch_5">
    <path d="M 97.093864 266.112 
L 101.203416 266.112 
L 101.203416 157.786839 
L 97.093864 157.786839 
z
" clip-path="url(#p66d63cb814)" style="fill: #d62728"/>
   </g>
   <g id="patch_6">
    <path d="M 117.64162 266.112 
L 121.751172 266.112 
L 121.751172 159.83071 
L 117.64162 159.83071 
z
" clip-path="url(#p66d63cb814)" style="fill: #d62728"/>
   </g>
   <g id="patch_7">
    <path d="M 138.189376 266.112 
L 142.298928 266.112 
L 142.298928 161.874581 
L 138.189376 161.874581 
z
" clip-path="url(#p66d63cb814)" style="fill: #d62728"/>
   </g>
   <g id="patch_8">
    <path d="M 158.737132 266.112 
L 162.846684 266.112 
L 162.846684 95.448774 
L 158.737132 95.448774 
z
" clip-path="url(#p66d63cb814)" style="fill: #d62728"/>
   </g>
   <g id="patch_9">
    <path d="M 179.284889 266.112 
L 183.39444 266.112 
L 183.39444 165.962323 
L 179.284889 165.962323 
z
" clip-path="url(#p66d63cb814)" style="fill: #d62728"/>
   </g>
   <g id="patch_10">
    <path d="M 199.832645 266.112 
L 203.942196 266.112 
L 203.942196 266.112 
L 199.832645 266.112 
z
" clip-path="url(#p66d63cb814)" style="fill: #d62728"/>
   </g>
   <g id="patch_11">
    <path d="M 220.380401 266.112 
L 224.489952 266.112 
L 224.489952 266.112 
L 220.380401 266.112 
z
" clip-path="url(#p66d63cb814)" style="fill: #d62728"/>
   </g>
   <g id="patch_12">
    <path d="M 240.928157 266.112 
L 245.037708 266.112 
L 245.037708 254.87071 
L 240.928157 254.87071 
z
" clip-path="url(#p66d63cb814)" style="fill: #d62728"/>
   </g>
   <g id="patch_13">
    <path d="M 261.475913 266.112 
L 265.585464 266.112 
L 265.585464 174.137806 
L 261.475913 174.137806 
z
" clip-path="url(#p66d63cb814)" style="fill: #d62728"/>
   </g>
   <g id="patch_14">
    <path d="M 282.023669 266.112 
L 286.13322 266.112 
L 286.13322 266.112 
L 282.023669 266.112 
z
" clip-path="url(#p66d63cb814)" style="fill: #d62728"/>
   </g>
   <g id="patch_15">
    <path d="M 302.571425 266.112 
L 306.680976 266.112 
L 306.680976 43.330065 
L 302.571425 43.330065 
z
" clip-path="url(#p66d63cb814)" style="fill: #d62728"/>
   </g>
   <g id="patch_16">
    <path d="M 323.119181 266.112 
L 327.228732 266.112 
L 327.228732 165.962323 
L 323.119181 165.962323 
z
" clip-path="url(#p66d63cb814)" style="fill: #d62728"/>
   </g>
   <g id="patch_17">
    <path d="M 343.666937 266.112 
L 347.776488 266.112 
L 347.776488 266.112 
L 343.666937 266.112 
z
" clip-path="url(#p66d63cb814)" style="fill: #d62728"/>
   </g>
   <g id="patch_18">
    <path d="M 364.214693 266.112 
L 368.324244 266.112 
L 368.324244 154.721032 
L 364.214693 154.721032 
z
" clip-path="url(#p66d63cb814)" style="fill: #d62728"/>
   </g>
   <g id="patch_19">
    <path d="M 60.107903 266.112 
L 64.217455 266.112 
L 64.217455 57.637161 
L 60.107903 57.637161 
z
" clip-path="url(#p66d63cb814)" style="fill: #10aab9"/>
   </g>
   <g id="patch_20">
    <path d="M 80.65566 266.112 
L 84.765211 266.112 
L 84.765211 266.112 
L 80.65566 266.112 
z
" clip-path="url(#p66d63cb814)" style="fill: #10aab9"/>
   </g>
   <g id="patch_21">
    <path d="M 101.203416 266.112 
L 105.312967 266.112 
L 105.312967 255.892645 
L 101.203416 255.892645 
z
" clip-path="url(#p66d63cb814)" style="fill: #10aab9"/>
   </g>
   <g id="patch_22">
    <path d="M 121.751172 266.112 
L 125.860723 266.112 
L 125.860723 31.066839 
L 121.751172 31.066839 
z
" clip-path="url(#p66d63cb814)" style="fill: #10aab9"/>
   </g>
   <g id="patch_23">
    <path d="M 142.298928 266.112 
L 146.408479 266.112 
L 146.408479 41.286194 
L 142.298928 41.286194 
z
" clip-path="url(#p66d63cb814)" style="fill: #10aab9"/>
   </g>
   <g id="patch_24">
    <path d="M 162.846684 266.112 
L 166.956235 266.112 
L 166.956235 155.742968 
L 162.846684 155.742968 
z
" clip-path="url(#p66d63cb814)" style="fill: #10aab9"/>
   </g>
   <g id="patch_25">
    <path d="M 183.39444 266.112 
L 187.503991 266.112 
L 187.503991 255.892645 
L 183.39444 255.892645 
z
" clip-path="url(#p66d63cb814)" style="fill: #10aab9"/>
   </g>
   <g id="patch_26">
    <path d="M 203.942196 266.112 
L 208.051747 266.112 
L 208.051747 14.715871 
L 203.942196 14.715871 
z
" clip-path="url(#p66d63cb814)" style="fill: #10aab9"/>
   </g>
   <g id="patch_27">
    <path d="M 224.489952 266.112 
L 228.599503 266.112 
L 228.599503 177.203613 
L 224.489952 177.203613 
z
" clip-path="url(#p66d63cb814)" style="fill: #10aab9"/>
   </g>
   <g id="patch_28">
    <path d="M 245.037708 266.112 
L 249.147259 266.112 
L 249.147259 105.668129 
L 245.037708 105.668129 
z
" clip-path="url(#p66d63cb814)" style="fill: #10aab9"/>
   </g>
   <g id="patch_29">
    <path d="M 265.585464 266.112 
L 269.695015 266.112 
L 269.695015 81.141677 
L 265.585464 81.141677 
z
" clip-path="url(#p66d63cb814)" style="fill: #10aab9"/>
   </g>
   <g id="patch_30">
    <path d="M 286.13322 266.112 
L 290.242771 266.112 
L 290.242771 61.724903 
L 286.13322 61.724903 
z
" clip-path="url(#p66d63cb814)" style="fill: #10aab9"/>
   </g>
   <g id="patch_31">
    <path d="M 306.680976 266.112 
L 310.790527 266.112 
L 310.790527 255.892645 
L 306.680976 255.892645 
z
" clip-path="url(#p66d63cb814)" style="fill: #10aab9"/>
   </g>
   <g id="patch_32">
    <path d="M 327.228732 266.112 
L 331.338283 266.112 
L 331.338283 181.291355 
L 327.228732 181.291355 
z
" clip-path="url(#p66d63cb814)" style="fill: #10aab9"/>
   </g>
   <g id="patch_33">
    <path d="M 347.776488 266.112 
L 351.886039 266.112 
L 351.886039 189.466839 
L 347.776488 189.466839 
z
" clip-path="url(#p66d63cb814)" style="fill: #10aab9"/>
   </g>
   <g id="patch_34">
    <path d="M 368.324244 266.112 
L 372.433795 266.112 
L 372.433795 255.892645 
L 368.324244 255.892645 
z
" clip-path="url(#p66d63cb814)" style="fill: #10aab9"/>
   </g>
   <g id="patch_35">
    <path d="M 64.217455 266.112 
L 68.327006 266.112 
L 68.327006 53.549419 
L 64.217455 53.549419 
z
" clip-path="url(#p66d63cb814)" style="fill: #3377e9"/>
   </g>
   <g id="patch_36">
    <path d="M 84.765211 266.112 
L 88.874762 266.112 
L 88.874762 266.112 
L 84.765211 266.112 
z
" clip-path="url(#p66d63cb814)" style="fill: #3377e9"/>
   </g>
   <g id="patch_37">
    <path d="M 105.312967 266.112 
L 109.422518 266.112 
L 109.422518 266.112 
L 105.312967 266.112 
z
" clip-path="url(#p66d63cb814)" style="fill: #3377e9"/>
   </g>
   <g id="patch_38">
    <path d="M 125.860723 266.112 
L 129.970274 266.112 
L 129.970274 41.286194 
L 125.860723 41.286194 
z
" clip-path="url(#p66d63cb814)" style="fill: #3377e9"/>
   </g>
   <g id="patch_39">
    <path d="M 146.408479 266.112 
L 150.51803 266.112 
L 150.51803 51.505548 
L 146.408479 51.505548 
z
" clip-path="url(#p66d63cb814)" style="fill: #3377e9"/>
   </g>
   <g id="patch_40">
    <path d="M 166.956235 266.112 
L 171.065786 266.112 
L 171.065786 174.137806 
L 166.956235 174.137806 
z
" clip-path="url(#p66d63cb814)" style="fill: #3377e9"/>
   </g>
   <g id="patch_41">
    <path d="M 187.503991 266.112 
L 191.613542 266.112 
L 191.613542 266.112 
L 187.503991 266.112 
z
" clip-path="url(#p66d63cb814)" style="fill: #3377e9"/>
   </g>
   <g id="patch_42">
    <path d="M 208.051747 266.112 
L 212.161298 266.112 
L 212.161298 12.672 
L 208.051747 12.672 
z
" clip-path="url(#p66d63cb814)" style="fill: #3377e9"/>
   </g>
   <g id="patch_43">
    <path d="M 228.599503 266.112 
L 232.709054 266.112 
L 232.709054 179.247484 
L 228.599503 179.247484 
z
" clip-path="url(#p66d63cb814)" style="fill: #3377e9"/>
   </g>
   <g id="patch_44">
    <path d="M 249.147259 266.112 
L 253.25681 266.112 
L 253.25681 114.865548 
L 249.147259 114.865548 
z
" clip-path="url(#p66d63cb814)" style="fill: #3377e9"/>
   </g>
   <g id="patch_45">
    <path d="M 269.695015 266.112 
L 273.804566 266.112 
L 273.804566 54.571355 
L 269.695015 54.571355 
z
" clip-path="url(#p66d63cb814)" style="fill: #3377e9"/>
   </g>
   <g id="patch_46">
    <path d="M 290.242771 266.112 
L 294.352322 266.112 
L 294.352322 32.088774 
L 290.242771 32.088774 
z
" clip-path="url(#p66d63cb814)" style="fill: #3377e9"/>
   </g>
   <g id="patch_47">
    <path d="M 310.790527 266.112 
L 314.900078 266.112 
L 314.900078 266.112 
L 310.790527 266.112 
z
" clip-path="url(#p66d63cb814)" style="fill: #3377e9"/>
   </g>
   <g id="patch_48">
    <path d="M 331.338283 266.112 
L 335.447834 266.112 
L 335.447834 191.51071 
L 331.338283 191.51071 
z
" clip-path="url(#p66d63cb814)" style="fill: #3377e9"/>
   </g>
   <g id="patch_49">
    <path d="M 351.886039 266.112 
L 355.99559 266.112 
L 355.99559 189.466839 
L 351.886039 189.466839 
z
" clip-path="url(#p66d63cb814)" style="fill: #3377e9"/>
   </g>
   <g id="patch_50">
    <path d="M 372.433795 266.112 
L 376.543347 266.112 
L 376.543347 266.112 
L 372.433795 266.112 
z
" clip-path="url(#p66d63cb814)" style="fill: #3377e9"/>
   </g>
   <g id="patch_51">
    <path d="M 68.327006 266.112 
L 72.436557 266.112 
L 72.436557 198.664258 
L 68.327006 198.664258 
z
" clip-path="url(#p66d63cb814)" style="fill: #ffa500"/>
   </g>
   <g id="patch_52">
    <path d="M 88.874762 266.112 
L 92.984313 266.112 
L 92.984313 266.112 
L 88.874762 266.112 
z
" clip-path="url(#p66d63cb814)" style="fill: #ffa500"/>
   </g>
   <g id="patch_53">
    <path d="M 109.422518 266.112 
L 113.532069 266.112 
L 113.532069 266.112 
L 109.422518 266.112 
z
" clip-path="url(#p66d63cb814)" style="fill: #ffa500"/>
   </g>
   <g id="patch_54">
    <path d="M 129.970274 266.112 
L 134.079825 266.112 
L 134.079825 87.27329 
L 129.970274 87.27329 
z
" clip-path="url(#p66d63cb814)" style="fill: #ffa500"/>
   </g>
   <g id="patch_55">
    <path d="M 150.51803 266.112 
L 154.627581 266.112 
L 154.627581 148.589419 
L 150.51803 148.589419 
z
" clip-path="url(#p66d63cb814)" style="fill: #ffa500"/>
   </g>
   <g id="patch_56">
    <path d="M 171.065786 266.112 
L 175.175337 266.112 
L 175.175337 227.278452 
L 171.065786 227.278452 
z
" clip-path="url(#p66d63cb814)" style="fill: #ffa500"/>
   </g>
   <g id="patch_57">
    <path d="M 191.613542 266.112 
L 195.723093 266.112 
L 195.723093 266.112 
L 191.613542 266.112 
z
" clip-path="url(#p66d63cb814)" style="fill: #ffa500"/>
   </g>
   <g id="patch_58">
    <path d="M 212.161298 266.112 
L 216.270849 266.112 
L 216.270849 106.690065 
L 212.161298 106.690065 
z
" clip-path="url(#p66d63cb814)" style="fill: #ffa500"/>
   </g>
   <g id="patch_59">
    <path d="M 232.709054 266.112 
L 236.818605 266.112 
L 236.818605 230.344258 
L 232.709054 230.344258 
z
" clip-path="url(#p66d63cb814)" style="fill: #ffa500"/>
   </g>
   <g id="patch_60">
    <path d="M 253.25681 266.112 
L 257.366361 266.112 
L 257.366361 149.611355 
L 253.25681 149.611355 
z
" clip-path="url(#p66d63cb814)" style="fill: #ffa500"/>
   </g>
   <g id="patch_61">
    <path d="M 273.804566 266.112 
L 277.914118 266.112 
L 277.914118 90.339097 
L 273.804566 90.339097 
z
" clip-path="url(#p66d63cb814)" style="fill: #ffa500"/>
   </g>
   <g id="patch_62">
    <path d="M 294.352322 266.112 
L 298.461874 266.112 
L 298.461874 124.062968 
L 294.352322 124.062968 
z
" clip-path="url(#p66d63cb814)" style="fill: #ffa500"/>
   </g>
   <g id="patch_63">
    <path d="M 314.900078 266.112 
L 319.00963 266.112 
L 319.00963 266.112 
L 314.900078 266.112 
z
" clip-path="url(#p66d63cb814)" style="fill: #ffa500"/>
   </g>
   <g id="patch_64">
    <path d="M 335.447834 266.112 
L 339.557386 266.112 
L 339.557386 227.278452 
L 335.447834 227.278452 
z
" clip-path="url(#p66d63cb814)" style="fill: #ffa500"/>
   </g>
   <g id="patch_65">
    <path d="M 355.99559 266.112 
L 360.105142 266.112 
L 360.105142 239.541677 
L 355.99559 239.541677 
z
" clip-path="url(#p66d63cb814)" style="fill: #ffa500"/>
   </g>
   <g id="patch_66">
    <path d="M 376.543347 266.112 
L 380.652898 266.112 
L 380.652898 266.112 
L 376.543347 266.112 
z
" clip-path="url(#p66d63cb814)" style="fill: #ffa500"/>
   </g>
   <g id="matplotlib.axis_1">
    <g id="xtick_1">
     <g id="line2d_1">
      <defs>
       <path id="me896710793" d="M 0 0 
L 0 3.5 
" style="stroke: #000000; stroke-width: 0.8"/>
      </defs>
      <g>
       <use xlink:href="#me896710793" x="64.217455" y="266.112" style="stroke: #000000; stroke-width: 0.8"/>
      </g>
     </g>
     <g id="text_1">
      <!-- 0 -->
      <g transform="translate(61.036205 280.710437) scale(0.1 -0.1)">
       <defs>
        <path id="DejaVuSans-30" d="M 2034 4250 
Q 1547 4250 1301 3770 
Q 1056 3291 1056 2328 
Q 1056 1369 1301 889 
Q 1547 409 2034 409 
Q 2525 409 2770 889 
Q 3016 1369 3016 2328 
Q 3016 3291 2770 3770 
Q 2525 4250 2034 4250 
z
M 2034 4750 
Q 2819 4750 3233 4129 
Q 3647 3509 3647 2328 
Q 3647 1150 3233 529 
Q 2819 -91 2034 -91 
Q 1250 -91 836 529 
Q 422 1150 422 2328 
Q 422 3509 836 4129 
Q 1250 4750 2034 4750 
z
" transform="scale(0.015625)"/>
       </defs>
       <use xlink:href="#DejaVuSans-30"/>
      </g>
     </g>
    </g>
    <g id="xtick_2">
     <g id="line2d_2">
      <g>
       <use xlink:href="#me896710793" x="84.765211" y="266.112" style="stroke: #000000; stroke-width: 0.8"/>
      </g>
     </g>
     <g id="text_2">
      <!-- 1 -->
      <g transform="translate(81.583961 280.710437) scale(0.1 -0.1)">
       <defs>
        <path id="DejaVuSans-31" d="M 794 531 
L 1825 531 
L 1825 4091 
L 703 3866 
L 703 4441 
L 1819 4666 
L 2450 4666 
L 2450 531 
L 3481 531 
L 3481 0 
L 794 0 
L 794 531 
z
" transform="scale(0.015625)"/>
       </defs>
       <use xlink:href="#DejaVuSans-31"/>
      </g>
     </g>
    </g>
    <g id="xtick_3">
     <g id="line2d_3">
      <g>
       <use xlink:href="#me896710793" x="105.312967" y="266.112" style="stroke: #000000; stroke-width: 0.8"/>
      </g>
     </g>
     <g id="text_3">
      <!-- 2 -->
      <g transform="translate(102.131717 280.710437) scale(0.1 -0.1)">
       <defs>
        <path id="DejaVuSans-32" d="M 1228 531 
L 3431 531 
L 3431 0 
L 469 0 
L 469 531 
Q 828 903 1448 1529 
Q 2069 2156 2228 2338 
Q 2531 2678 2651 2914 
Q 2772 3150 2772 3378 
Q 2772 3750 2511 3984 
Q 2250 4219 1831 4219 
Q 1534 4219 1204 4116 
Q 875 4013 500 3803 
L 500 4441 
Q 881 4594 1212 4672 
Q 1544 4750 1819 4750 
Q 2544 4750 2975 4387 
Q 3406 4025 3406 3419 
Q 3406 3131 3298 2873 
Q 3191 2616 2906 2266 
Q 2828 2175 2409 1742 
Q 1991 1309 1228 531 
z
" transform="scale(0.015625)"/>
       </defs>
       <use xlink:href="#DejaVuSans-32"/>
      </g>
     </g>
    </g>
    <g id="xtick_4">
     <g id="line2d_4">
      <g>
       <use xlink:href="#me896710793" x="125.860723" y="266.112" style="stroke: #000000; stroke-width: 0.8"/>
      </g>
     </g>
     <g id="text_4">
      <!-- 3 -->
      <g transform="translate(122.679473 280.710437) scale(0.1 -0.1)">
       <defs>
        <path id="DejaVuSans-33" d="M 2597 2516 
Q 3050 2419 3304 2112 
Q 3559 1806 3559 1356 
Q 3559 666 3084 287 
Q 2609 -91 1734 -91 
Q 1441 -91 1130 -33 
Q 819 25 488 141 
L 488 750 
Q 750 597 1062 519 
Q 1375 441 1716 441 
Q 2309 441 2620 675 
Q 2931 909 2931 1356 
Q 2931 1769 2642 2001 
Q 2353 2234 1838 2234 
L 1294 2234 
L 1294 2753 
L 1863 2753 
Q 2328 2753 2575 2939 
Q 2822 3125 2822 3475 
Q 2822 3834 2567 4026 
Q 2313 4219 1838 4219 
Q 1578 4219 1281 4162 
Q 984 4106 628 3988 
L 628 4550 
Q 988 4650 1302 4700 
Q 1616 4750 1894 4750 
Q 2613 4750 3031 4423 
Q 3450 4097 3450 3541 
Q 3450 3153 3228 2886 
Q 3006 2619 2597 2516 
z
" transform="scale(0.015625)"/>
       </defs>
       <use xlink:href="#DejaVuSans-33"/>
      </g>
     </g>
    </g>
    <g id="xtick_5">
     <g id="line2d_5">
      <g>
       <use xlink:href="#me896710793" x="146.408479" y="266.112" style="stroke: #000000; stroke-width: 0.8"/>
      </g>
     </g>
     <g id="text_5">
      <!-- 4 -->
      <g transform="translate(143.227229 280.710437) scale(0.1 -0.1)">
       <defs>
        <path id="DejaVuSans-34" d="M 2419 4116 
L 825 1625 
L 2419 1625 
L 2419 4116 
z
M 2253 4666 
L 3047 4666 
L 3047 1625 
L 3713 1625 
L 3713 1100 
L 3047 1100 
L 3047 0 
L 2419 0 
L 2419 1100 
L 313 1100 
L 313 1709 
L 2253 4666 
z
" transform="scale(0.015625)"/>
       </defs>
       <use xlink:href="#DejaVuSans-34"/>
      </g>
     </g>
    </g>
    <g id="xtick_6">
     <g id="line2d_6">
      <g>
       <use xlink:href="#me896710793" x="166.956235" y="266.112" style="stroke: #000000; stroke-width: 0.8"/>
      </g>
     </g>
     <g id="text_6">
      <!-- 5 -->
      <g transform="translate(163.774985 280.710437) scale(0.1 -0.1)">
       <defs>
        <path id="DejaVuSans-35" d="M 691 4666 
L 3169 4666 
L 3169 4134 
L 1269 4134 
L 1269 2991 
Q 1406 3038 1543 3061 
Q 1681 3084 1819 3084 
Q 2600 3084 3056 2656 
Q 3513 2228 3513 1497 
Q 3513 744 3044 326 
Q 2575 -91 1722 -91 
Q 1428 -91 1123 -41 
Q 819 9 494 109 
L 494 744 
Q 775 591 1075 516 
Q 1375 441 1709 441 
Q 2250 441 2565 725 
Q 2881 1009 2881 1497 
Q 2881 1984 2565 2268 
Q 2250 2553 1709 2553 
Q 1456 2553 1204 2497 
Q 953 2441 691 2322 
L 691 4666 
z
" transform="scale(0.015625)"/>
       </defs>
       <use xlink:href="#DejaVuSans-35"/>
      </g>
     </g>
    </g>
    <g id="xtick_7">
     <g id="line2d_7">
      <g>
       <use xlink:href="#me896710793" x="187.503991" y="266.112" style="stroke: #000000; stroke-width: 0.8"/>
      </g>
     </g>
     <g id="text_7">
      <!-- 6 -->
      <g transform="translate(184.322741 280.710437) scale(0.1 -0.1)">
       <defs>
        <path id="DejaVuSans-36" d="M 2113 2584 
Q 1688 2584 1439 2293 
Q 1191 2003 1191 1497 
Q 1191 994 1439 701 
Q 1688 409 2113 409 
Q 2538 409 2786 701 
Q 3034 994 3034 1497 
Q 3034 2003 2786 2293 
Q 2538 2584 2113 2584 
z
M 3366 4563 
L 3366 3988 
Q 3128 4100 2886 4159 
Q 2644 4219 2406 4219 
Q 1781 4219 1451 3797 
Q 1122 3375 1075 2522 
Q 1259 2794 1537 2939 
Q 1816 3084 2150 3084 
Q 2853 3084 3261 2657 
Q 3669 2231 3669 1497 
Q 3669 778 3244 343 
Q 2819 -91 2113 -91 
Q 1303 -91 875 529 
Q 447 1150 447 2328 
Q 447 3434 972 4092 
Q 1497 4750 2381 4750 
Q 2619 4750 2861 4703 
Q 3103 4656 3366 4563 
z
" transform="scale(0.015625)"/>
       </defs>
       <use xlink:href="#DejaVuSans-36"/>
      </g>
     </g>
    </g>
    <g id="xtick_8">
     <g id="line2d_8">
      <g>
       <use xlink:href="#me896710793" x="208.051747" y="266.112" style="stroke: #000000; stroke-width: 0.8"/>
      </g>
     </g>
     <g id="text_8">
      <!-- 7 -->
      <g transform="translate(204.870497 280.710437) scale(0.1 -0.1)">
       <defs>
        <path id="DejaVuSans-37" d="M 525 4666 
L 3525 4666 
L 3525 4397 
L 1831 0 
L 1172 0 
L 2766 4134 
L 525 4134 
L 525 4666 
z
" transform="scale(0.015625)"/>
       </defs>
       <use xlink:href="#DejaVuSans-37"/>
      </g>
     </g>
    </g>
    <g id="xtick_9">
     <g id="line2d_9">
      <g>
       <use xlink:href="#me896710793" x="228.599503" y="266.112" style="stroke: #000000; stroke-width: 0.8"/>
      </g>
     </g>
     <g id="text_9">
      <!-- 8 -->
      <g transform="translate(225.418253 280.710437) scale(0.1 -0.1)">
       <defs>
        <path id="DejaVuSans-38" d="M 2034 2216 
Q 1584 2216 1326 1975 
Q 1069 1734 1069 1313 
Q 1069 891 1326 650 
Q 1584 409 2034 409 
Q 2484 409 2743 651 
Q 3003 894 3003 1313 
Q 3003 1734 2745 1975 
Q 2488 2216 2034 2216 
z
M 1403 2484 
Q 997 2584 770 2862 
Q 544 3141 544 3541 
Q 544 4100 942 4425 
Q 1341 4750 2034 4750 
Q 2731 4750 3128 4425 
Q 3525 4100 3525 3541 
Q 3525 3141 3298 2862 
Q 3072 2584 2669 2484 
Q 3125 2378 3379 2068 
Q 3634 1759 3634 1313 
Q 3634 634 3220 271 
Q 2806 -91 2034 -91 
Q 1263 -91 848 271 
Q 434 634 434 1313 
Q 434 1759 690 2068 
Q 947 2378 1403 2484 
z
M 1172 3481 
Q 1172 3119 1398 2916 
Q 1625 2713 2034 2713 
Q 2441 2713 2670 2916 
Q 2900 3119 2900 3481 
Q 2900 3844 2670 4047 
Q 2441 4250 2034 4250 
Q 1625 4250 1398 4047 
Q 1172 3844 1172 3481 
z
" transform="scale(0.015625)"/>
       </defs>
       <use xlink:href="#DejaVuSans-38"/>
      </g>
     </g>
    </g>
    <g id="xtick_10">
     <g id="line2d_10">
      <g>
       <use xlink:href="#me896710793" x="249.147259" y="266.112" style="stroke: #000000; stroke-width: 0.8"/>
      </g>
     </g>
     <g id="text_10">
      <!-- 9 -->
      <g transform="translate(245.966009 280.710437) scale(0.1 -0.1)">
       <defs>
        <path id="DejaVuSans-39" d="M 703 97 
L 703 672 
Q 941 559 1184 500 
Q 1428 441 1663 441 
Q 2288 441 2617 861 
Q 2947 1281 2994 2138 
Q 2813 1869 2534 1725 
Q 2256 1581 1919 1581 
Q 1219 1581 811 2004 
Q 403 2428 403 3163 
Q 403 3881 828 4315 
Q 1253 4750 1959 4750 
Q 2769 4750 3195 4129 
Q 3622 3509 3622 2328 
Q 3622 1225 3098 567 
Q 2575 -91 1691 -91 
Q 1453 -91 1209 -44 
Q 966 3 703 97 
z
M 1959 2075 
Q 2384 2075 2632 2365 
Q 2881 2656 2881 3163 
Q 2881 3666 2632 3958 
Q 2384 4250 1959 4250 
Q 1534 4250 1286 3958 
Q 1038 3666 1038 3163 
Q 1038 2656 1286 2365 
Q 1534 2075 1959 2075 
z
" transform="scale(0.015625)"/>
       </defs>
       <use xlink:href="#DejaVuSans-39"/>
      </g>
     </g>
    </g>
    <g id="xtick_11">
     <g id="line2d_11">
      <g>
       <use xlink:href="#me896710793" x="269.695015" y="266.112" style="stroke: #000000; stroke-width: 0.8"/>
      </g>
     </g>
     <g id="text_11">
      <!-- 10 -->
      <g transform="translate(263.332515 280.710437) scale(0.1 -0.1)">
       <use xlink:href="#DejaVuSans-31"/>
       <use xlink:href="#DejaVuSans-30" x="63.623047"/>
      </g>
     </g>
    </g>
    <g id="xtick_12">
     <g id="line2d_12">
      <g>
       <use xlink:href="#me896710793" x="290.242771" y="266.112" style="stroke: #000000; stroke-width: 0.8"/>
      </g>
     </g>
     <g id="text_12">
      <!-- 11 -->
      <g transform="translate(283.880271 280.710437) scale(0.1 -0.1)">
       <use xlink:href="#DejaVuSans-31"/>
       <use xlink:href="#DejaVuSans-31" x="63.623047"/>
      </g>
     </g>
    </g>
    <g id="xtick_13">
     <g id="line2d_13">
      <g>
       <use xlink:href="#me896710793" x="310.790527" y="266.112" style="stroke: #000000; stroke-width: 0.8"/>
      </g>
     </g>
     <g id="text_13">
      <!-- 12 -->
      <g transform="translate(304.428027 280.710437) scale(0.1 -0.1)">
       <use xlink:href="#DejaVuSans-31"/>
       <use xlink:href="#DejaVuSans-32" x="63.623047"/>
      </g>
     </g>
    </g>
    <g id="xtick_14">
     <g id="line2d_14">
      <g>
       <use xlink:href="#me896710793" x="331.338283" y="266.112" style="stroke: #000000; stroke-width: 0.8"/>
      </g>
     </g>
     <g id="text_14">
      <!-- 13 -->
      <g transform="translate(324.975783 280.710437) scale(0.1 -0.1)">
       <use xlink:href="#DejaVuSans-31"/>
       <use xlink:href="#DejaVuSans-33" x="63.623047"/>
      </g>
     </g>
    </g>
    <g id="xtick_15">
     <g id="line2d_15">
      <g>
       <use xlink:href="#me896710793" x="351.886039" y="266.112" style="stroke: #000000; stroke-width: 0.8"/>
      </g>
     </g>
     <g id="text_15">
      <!-- 14 -->
      <g transform="translate(345.523539 280.710437) scale(0.1 -0.1)">
       <use xlink:href="#DejaVuSans-31"/>
       <use xlink:href="#DejaVuSans-34" x="63.623047"/>
      </g>
     </g>
    </g>
    <g id="xtick_16">
     <g id="line2d_16">
      <g>
       <use xlink:href="#me896710793" x="372.433795" y="266.112" style="stroke: #000000; stroke-width: 0.8"/>
      </g>
     </g>
     <g id="text_16">
      <!-- 15 -->
      <g transform="translate(366.071295 280.710437) scale(0.1 -0.1)">
       <use xlink:href="#DejaVuSans-31"/>
       <use xlink:href="#DejaVuSans-35" x="63.623047"/>
      </g>
     </g>
    </g>
    <g id="text_17">
     <!-- Index of appliances -->
     <g transform="translate(169.707656 294.388562) scale(0.1 -0.1)">
      <defs>
       <path id="DejaVuSans-49" d="M 628 4666 
L 1259 4666 
L 1259 0 
L 628 0 
L 628 4666 
z
" transform="scale(0.015625)"/>
       <path id="DejaVuSans-6e" d="M 3513 2113 
L 3513 0 
L 2938 0 
L 2938 2094 
Q 2938 2591 2744 2837 
Q 2550 3084 2163 3084 
Q 1697 3084 1428 2787 
Q 1159 2491 1159 1978 
L 1159 0 
L 581 0 
L 581 3500 
L 1159 3500 
L 1159 2956 
Q 1366 3272 1645 3428 
Q 1925 3584 2291 3584 
Q 2894 3584 3203 3211 
Q 3513 2838 3513 2113 
z
" transform="scale(0.015625)"/>
       <path id="DejaVuSans-64" d="M 2906 2969 
L 2906 4863 
L 3481 4863 
L 3481 0 
L 2906 0 
L 2906 525 
Q 2725 213 2448 61 
Q 2172 -91 1784 -91 
Q 1150 -91 751 415 
Q 353 922 353 1747 
Q 353 2572 751 3078 
Q 1150 3584 1784 3584 
Q 2172 3584 2448 3432 
Q 2725 3281 2906 2969 
z
M 947 1747 
Q 947 1113 1208 752 
Q 1469 391 1925 391 
Q 2381 391 2643 752 
Q 2906 1113 2906 1747 
Q 2906 2381 2643 2742 
Q 2381 3103 1925 3103 
Q 1469 3103 1208 2742 
Q 947 2381 947 1747 
z
" transform="scale(0.015625)"/>
       <path id="DejaVuSans-65" d="M 3597 1894 
L 3597 1613 
L 953 1613 
Q 991 1019 1311 708 
Q 1631 397 2203 397 
Q 2534 397 2845 478 
Q 3156 559 3463 722 
L 3463 178 
Q 3153 47 2828 -22 
Q 2503 -91 2169 -91 
Q 1331 -91 842 396 
Q 353 884 353 1716 
Q 353 2575 817 3079 
Q 1281 3584 2069 3584 
Q 2775 3584 3186 3129 
Q 3597 2675 3597 1894 
z
M 3022 2063 
Q 3016 2534 2758 2815 
Q 2500 3097 2075 3097 
Q 1594 3097 1305 2825 
Q 1016 2553 972 2059 
L 3022 2063 
z
" transform="scale(0.015625)"/>
       <path id="DejaVuSans-78" d="M 3513 3500 
L 2247 1797 
L 3578 0 
L 2900 0 
L 1881 1375 
L 863 0 
L 184 0 
L 1544 1831 
L 300 3500 
L 978 3500 
L 1906 2253 
L 2834 3500 
L 3513 3500 
z
" transform="scale(0.015625)"/>
       <path id="DejaVuSans-20" transform="scale(0.015625)"/>
       <path id="DejaVuSans-6f" d="M 1959 3097 
Q 1497 3097 1228 2736 
Q 959 2375 959 1747 
Q 959 1119 1226 758 
Q 1494 397 1959 397 
Q 2419 397 2687 759 
Q 2956 1122 2956 1747 
Q 2956 2369 2687 2733 
Q 2419 3097 1959 3097 
z
M 1959 3584 
Q 2709 3584 3137 3096 
Q 3566 2609 3566 1747 
Q 3566 888 3137 398 
Q 2709 -91 1959 -91 
Q 1206 -91 779 398 
Q 353 888 353 1747 
Q 353 2609 779 3096 
Q 1206 3584 1959 3584 
z
" transform="scale(0.015625)"/>
       <path id="DejaVuSans-66" d="M 2375 4863 
L 2375 4384 
L 1825 4384 
Q 1516 4384 1395 4259 
Q 1275 4134 1275 3809 
L 1275 3500 
L 2222 3500 
L 2222 3053 
L 1275 3053 
L 1275 0 
L 697 0 
L 697 3053 
L 147 3053 
L 147 3500 
L 697 3500 
L 697 3744 
Q 697 4328 969 4595 
Q 1241 4863 1831 4863 
L 2375 4863 
z
" transform="scale(0.015625)"/>
       <path id="DejaVuSans-61" d="M 2194 1759 
Q 1497 1759 1228 1600 
Q 959 1441 959 1056 
Q 959 750 1161 570 
Q 1363 391 1709 391 
Q 2188 391 2477 730 
Q 2766 1069 2766 1631 
L 2766 1759 
L 2194 1759 
z
M 3341 1997 
L 3341 0 
L 2766 0 
L 2766 531 
Q 2569 213 2275 61 
Q 1981 -91 1556 -91 
Q 1019 -91 701 211 
Q 384 513 384 1019 
Q 384 1609 779 1909 
Q 1175 2209 1959 2209 
L 2766 2209 
L 2766 2266 
Q 2766 2663 2505 2880 
Q 2244 3097 1772 3097 
Q 1472 3097 1187 3025 
Q 903 2953 641 2809 
L 641 3341 
Q 956 3463 1253 3523 
Q 1550 3584 1831 3584 
Q 2591 3584 2966 3190 
Q 3341 2797 3341 1997 
z
" transform="scale(0.015625)"/>
       <path id="DejaVuSans-70" d="M 1159 525 
L 1159 -1331 
L 581 -1331 
L 581 3500 
L 1159 3500 
L 1159 2969 
Q 1341 3281 1617 3432 
Q 1894 3584 2278 3584 
Q 2916 3584 3314 3078 
Q 3713 2572 3713 1747 
Q 3713 922 3314 415 
Q 2916 -91 2278 -91 
Q 1894 -91 1617 61 
Q 1341 213 1159 525 
z
M 3116 1747 
Q 3116 2381 2855 2742 
Q 2594 3103 2138 3103 
Q 1681 3103 1420 2742 
Q 1159 2381 1159 1747 
Q 1159 1113 1420 752 
Q 1681 391 2138 391 
Q 2594 391 2855 752 
Q 3116 1113 3116 1747 
z
" transform="scale(0.015625)"/>
       <path id="DejaVuSans-6c" d="M 603 4863 
L 1178 4863 
L 1178 0 
L 603 0 
L 603 4863 
z
" transform="scale(0.015625)"/>
       <path id="DejaVuSans-69" d="M 603 3500 
L 1178 3500 
L 1178 0 
L 603 0 
L 603 3500 
z
M 603 4863 
L 1178 4863 
L 1178 4134 
L 603 4134 
L 603 4863 
z
" transform="scale(0.015625)"/>
       <path id="DejaVuSans-63" d="M 3122 3366 
L 3122 2828 
Q 2878 2963 2633 3030 
Q 2388 3097 2138 3097 
Q 1578 3097 1268 2742 
Q 959 2388 959 1747 
Q 959 1106 1268 751 
Q 1578 397 2138 397 
Q 2388 397 2633 464 
Q 2878 531 3122 666 
L 3122 134 
Q 2881 22 2623 -34 
Q 2366 -91 2075 -91 
Q 1284 -91 818 406 
Q 353 903 353 1747 
Q 353 2603 823 3093 
Q 1294 3584 2113 3584 
Q 2378 3584 2631 3529 
Q 2884 3475 3122 3366 
z
" transform="scale(0.015625)"/>
       <path id="DejaVuSans-73" d="M 2834 3397 
L 2834 2853 
Q 2591 2978 2328 3040 
Q 2066 3103 1784 3103 
Q 1356 3103 1142 2972 
Q 928 2841 928 2578 
Q 928 2378 1081 2264 
Q 1234 2150 1697 2047 
L 1894 2003 
Q 2506 1872 2764 1633 
Q 3022 1394 3022 966 
Q 3022 478 2636 193 
Q 2250 -91 1575 -91 
Q 1294 -91 989 -36 
Q 684 19 347 128 
L 347 722 
Q 666 556 975 473 
Q 1284 391 1588 391 
Q 1994 391 2212 530 
Q 2431 669 2431 922 
Q 2431 1156 2273 1281 
Q 2116 1406 1581 1522 
L 1381 1569 
Q 847 1681 609 1914 
Q 372 2147 372 2553 
Q 372 3047 722 3315 
Q 1072 3584 1716 3584 
Q 2034 3584 2315 3537 
Q 2597 3491 2834 3397 
z
" transform="scale(0.015625)"/>
      </defs>
      <use xlink:href="#DejaVuSans-49"/>
      <use xlink:href="#DejaVuSans-6e" x="29.492188"/>
      <use xlink:href="#DejaVuSans-64" x="92.871094"/>
      <use xlink:href="#DejaVuSans-65" x="156.347656"/>
      <use xlink:href="#DejaVuSans-78" x="216.121094"/>
      <use xlink:href="#DejaVuSans-20" x="275.300781"/>
      <use xlink:href="#DejaVuSans-6f" x="307.087891"/>
      <use xlink:href="#DejaVuSans-66" x="368.269531"/>
      <use xlink:href="#DejaVuSans-20" x="403.474609"/>
      <use xlink:href="#DejaVuSans-61" x="435.261719"/>
      <use xlink:href="#DejaVuSans-70" x="496.541016"/>
      <use xlink:href="#DejaVuSans-70" x="560.017578"/>
      <use xlink:href="#DejaVuSans-6c" x="623.494141"/>
      <use xlink:href="#DejaVuSans-69" x="651.277344"/>
      <use xlink:href="#DejaVuSans-61" x="679.060547"/>
      <use xlink:href="#DejaVuSans-6e" x="740.339844"/>
      <use xlink:href="#DejaVuSans-63" x="803.71875"/>
      <use xlink:href="#DejaVuSans-65" x="858.699219"/>
      <use xlink:href="#DejaVuSans-73" x="920.222656"/>
     </g>
    </g>
   </g>
   <g id="matplotlib.axis_2">
    <g id="ytick_1">
     <g id="line2d_17">
      <defs>
       <path id="mc6038dba9d" d="M 0 0 
L -3.5 0 
" style="stroke: #000000; stroke-width: 0.8"/>
      </defs>
      <g>
       <use xlink:href="#mc6038dba9d" x="39.765625" y="266.112" style="stroke: #000000; stroke-width: 0.8"/>
      </g>
     </g>
     <g id="text_18">
      <!-- 0 -->
      <g transform="translate(26.403125 269.911219) scale(0.1 -0.1)">
       <use xlink:href="#DejaVuSans-30"/>
      </g>
     </g>
    </g>
    <g id="ytick_2">
     <g id="line2d_18">
      <g>
       <use xlink:href="#mc6038dba9d" x="39.765625" y="215.015226" style="stroke: #000000; stroke-width: 0.8"/>
      </g>
     </g>
     <g id="text_19">
      <!-- 50 -->
      <g transform="translate(20.040625 218.814445) scale(0.1 -0.1)">
       <use xlink:href="#DejaVuSans-35"/>
       <use xlink:href="#DejaVuSans-30" x="63.623047"/>
      </g>
     </g>
    </g>
    <g id="ytick_3">
     <g id="line2d_19">
      <g>
       <use xlink:href="#mc6038dba9d" x="39.765625" y="163.918452" style="stroke: #000000; stroke-width: 0.8"/>
      </g>
     </g>
     <g id="text_20">
      <!-- 100 -->
      <g transform="translate(13.678125 167.71767) scale(0.1 -0.1)">
       <use xlink:href="#DejaVuSans-31"/>
       <use xlink:href="#DejaVuSans-30" x="63.623047"/>
       <use xlink:href="#DejaVuSans-30" x="127.246094"/>
      </g>
     </g>
    </g>
    <g id="ytick_4">
     <g id="line2d_20">
      <g>
       <use xlink:href="#mc6038dba9d" x="39.765625" y="112.821677" style="stroke: #000000; stroke-width: 0.8"/>
      </g>
     </g>
     <g id="text_21">
      <!-- 150 -->
      <g transform="translate(13.678125 116.620896) scale(0.1 -0.1)">
       <use xlink:href="#DejaVuSans-31"/>
       <use xlink:href="#DejaVuSans-35" x="63.623047"/>
       <use xlink:href="#DejaVuSans-30" x="127.246094"/>
      </g>
     </g>
    </g>
    <g id="ytick_5">
     <g id="line2d_21">
      <g>
       <use xlink:href="#mc6038dba9d" x="39.765625" y="61.724903" style="stroke: #000000; stroke-width: 0.8"/>
      </g>
     </g>
     <g id="text_22">
      <!-- 200 -->
      <g transform="translate(13.678125 65.524122) scale(0.1 -0.1)">
       <use xlink:href="#DejaVuSans-32"/>
       <use xlink:href="#DejaVuSans-30" x="63.623047"/>
       <use xlink:href="#DejaVuSans-30" x="127.246094"/>
      </g>
     </g>
    </g>
    <g id="ytick_6">
     <g id="line2d_22">
      <g>
       <use xlink:href="#mc6038dba9d" x="39.765625" y="10.628129" style="stroke: #000000; stroke-width: 0.8"/>
      </g>
     </g>
     <g id="text_23">
      <!-- 250 -->
      <g transform="translate(13.678125 14.427348) scale(0.1 -0.1)">
       <use xlink:href="#DejaVuSans-32"/>
       <use xlink:href="#DejaVuSans-35" x="63.623047"/>
       <use xlink:href="#DejaVuSans-30" x="127.246094"/>
      </g>
     </g>
    </g>
    <g id="text_24">
     <!-- # of inst. -->
     <g transform="translate(7.598438 155.955219) rotate(-90) scale(0.1 -0.1)">
      <defs>
       <path id="DejaVuSans-23" d="M 3272 2816 
L 2363 2816 
L 2100 1772 
L 3016 1772 
L 3272 2816 
z
M 2803 4594 
L 2478 3297 
L 3391 3297 
L 3719 4594 
L 4219 4594 
L 3897 3297 
L 4872 3297 
L 4872 2816 
L 3775 2816 
L 3519 1772 
L 4513 1772 
L 4513 1294 
L 3397 1294 
L 3072 0 
L 2572 0 
L 2894 1294 
L 1978 1294 
L 1656 0 
L 1153 0 
L 1478 1294 
L 494 1294 
L 494 1772 
L 1594 1772 
L 1856 2816 
L 850 2816 
L 850 3297 
L 1978 3297 
L 2297 4594 
L 2803 4594 
z
" transform="scale(0.015625)"/>
       <path id="DejaVuSans-74" d="M 1172 4494 
L 1172 3500 
L 2356 3500 
L 2356 3053 
L 1172 3053 
L 1172 1153 
Q 1172 725 1289 603 
Q 1406 481 1766 481 
L 2356 481 
L 2356 0 
L 1766 0 
Q 1100 0 847 248 
Q 594 497 594 1153 
L 594 3053 
L 172 3053 
L 172 3500 
L 594 3500 
L 594 4494 
L 1172 4494 
z
" transform="scale(0.015625)"/>
       <path id="DejaVuSans-2e" d="M 684 794 
L 1344 794 
L 1344 0 
L 684 0 
L 684 794 
z
" transform="scale(0.015625)"/>
      </defs>
      <use xlink:href="#DejaVuSans-23"/>
      <use xlink:href="#DejaVuSans-20" x="83.789062"/>
      <use xlink:href="#DejaVuSans-6f" x="115.576172"/>
      <use xlink:href="#DejaVuSans-66" x="176.757812"/>
      <use xlink:href="#DejaVuSans-20" x="211.962891"/>
      <use xlink:href="#DejaVuSans-69" x="243.75"/>
      <use xlink:href="#DejaVuSans-6e" x="271.533203"/>
      <use xlink:href="#DejaVuSans-73" x="334.912109"/>
      <use xlink:href="#DejaVuSans-74" x="387.011719"/>
      <use xlink:href="#DejaVuSans-2e" x="426.220703"/>
     </g>
    </g>
   </g>
   <g id="patch_67">
    <path d="M 39.765625 266.112 
L 39.765625 -0 
" style="fill: none; stroke: #000000; stroke-width: 0.8; stroke-linejoin: miter; stroke-linecap: square"/>
   </g>
   <g id="patch_68">
    <path d="M 396.885625 266.112 
L 396.885625 -0 
" style="fill: none; stroke: #000000; stroke-width: 0.8; stroke-linejoin: miter; stroke-linecap: square"/>
   </g>
   <g id="patch_69">
    <path d="M 39.765625 266.112 
L 396.885625 266.112 
" style="fill: none; stroke: #000000; stroke-width: 0.8; stroke-linejoin: miter; stroke-linecap: square"/>
   </g>
   <g id="patch_70">
    <path d="M 39.765625 -0 
L 396.885625 -0 
" style="fill: none; stroke: #000000; stroke-width: 0.8; stroke-linejoin: miter; stroke-linecap: square"/>
   </g>
   <g id="legend_1">
    <g id="patch_71">
     <path d="M 54.975094 22.678125 
L 345.964156 22.678125 
Q 347.964156 22.678125 347.964156 20.678125 
L 347.964156 7 
Q 347.964156 5 345.964156 5 
L 54.975094 5 
Q 52.975094 5 52.975094 7 
L 52.975094 20.678125 
Q 52.975094 22.678125 54.975094 22.678125 
L 54.975094 22.678125 
z
" style="fill: none; opacity: 0.8; stroke: #cccccc; stroke-linejoin: miter"/>
    </g>
    <g id="patch_72">
     <path d="M 56.975094 16.598437 
L 76.975094 16.598437 
L 76.975094 9.598437 
L 56.975094 9.598437 
z
" style="fill: #d62728"/>
    </g>
    <g id="text_25">
     <!-- 2018A -->
     <g transform="translate(84.975094 16.598437) scale(0.1 -0.1)">
      <defs>
       <path id="DejaVuSans-41" d="M 2188 4044 
L 1331 1722 
L 3047 1722 
L 2188 4044 
z
M 1831 4666 
L 2547 4666 
L 4325 0 
L 3669 0 
L 3244 1197 
L 1141 1197 
L 716 0 
L 50 0 
L 1831 4666 
z
" transform="scale(0.015625)"/>
      </defs>
      <use xlink:href="#DejaVuSans-32"/>
      <use xlink:href="#DejaVuSans-30" x="63.623047"/>
      <use xlink:href="#DejaVuSans-31" x="127.246094"/>
      <use xlink:href="#DejaVuSans-38" x="190.869141"/>
      <use xlink:href="#DejaVuSans-41" x="254.492188"/>
     </g>
    </g>
    <g id="patch_73">
     <path d="M 137.265719 16.598437 
L 157.265719 16.598437 
L 157.265719 9.598437 
L 137.265719 9.598437 
z
" style="fill: #10aab9"/>
    </g>
    <g id="text_26">
     <!-- 2018S -->
     <g transform="translate(165.265719 16.598437) scale(0.1 -0.1)">
      <defs>
       <path id="DejaVuSans-53" d="M 3425 4513 
L 3425 3897 
Q 3066 4069 2747 4153 
Q 2428 4238 2131 4238 
Q 1616 4238 1336 4038 
Q 1056 3838 1056 3469 
Q 1056 3159 1242 3001 
Q 1428 2844 1947 2747 
L 2328 2669 
Q 3034 2534 3370 2195 
Q 3706 1856 3706 1288 
Q 3706 609 3251 259 
Q 2797 -91 1919 -91 
Q 1588 -91 1214 -16 
Q 841 59 441 206 
L 441 856 
Q 825 641 1194 531 
Q 1563 422 1919 422 
Q 2459 422 2753 634 
Q 3047 847 3047 1241 
Q 3047 1584 2836 1778 
Q 2625 1972 2144 2069 
L 1759 2144 
Q 1053 2284 737 2584 
Q 422 2884 422 3419 
Q 422 4038 858 4394 
Q 1294 4750 2059 4750 
Q 2388 4750 2728 4690 
Q 3069 4631 3425 4513 
z
" transform="scale(0.015625)"/>
      </defs>
      <use xlink:href="#DejaVuSans-32"/>
      <use xlink:href="#DejaVuSans-30" x="63.623047"/>
      <use xlink:href="#DejaVuSans-31" x="127.246094"/>
      <use xlink:href="#DejaVuSans-38" x="190.869141"/>
      <use xlink:href="#DejaVuSans-53" x="254.492188"/>
     </g>
    </g>
    <g id="patch_74">
     <path d="M 217.064156 16.598437 
L 237.064156 16.598437 
L 237.064156 9.598437 
L 217.064156 9.598437 
z
" style="fill: #3377e9"/>
    </g>
    <g id="text_27">
     <!-- 2017 -->
     <g transform="translate(245.064156 16.598437) scale(0.1 -0.1)">
      <use xlink:href="#DejaVuSans-32"/>
      <use xlink:href="#DejaVuSans-30" x="63.623047"/>
      <use xlink:href="#DejaVuSans-31" x="127.246094"/>
      <use xlink:href="#DejaVuSans-37" x="190.869141"/>
     </g>
    </g>
    <g id="patch_75">
     <path d="M 290.514156 16.598437 
L 310.514156 16.598437 
L 310.514156 9.598437 
L 290.514156 9.598437 
z
" style="fill: #ffa500"/>
    </g>
    <g id="text_28">
     <!-- 2014 -->
     <g transform="translate(318.514156 16.598437) scale(0.1 -0.1)">
      <use xlink:href="#DejaVuSans-32"/>
      <use xlink:href="#DejaVuSans-30" x="63.623047"/>
      <use xlink:href="#DejaVuSans-31" x="127.246094"/>
      <use xlink:href="#DejaVuSans-34" x="190.869141"/>
     </g>
    </g>
   </g>
  </g>
 </g>
 <defs>
  <clipPath id="p66d63cb814">
   <rect x="39.765625" y="-0" width="357.12" height="266.112"/>
  </clipPath>
 </defs>
</svg>
